<svg width="171" height="62" viewBox="0 0 171 62" fill="none" xmlns="http://www.w3.org/2000/svg">
    <path fill-rule="evenodd" clip-rule="evenodd" d="M16.6343 8H41.8999L54.5312 29.6095L41.8999 51.2191H16.6343L4 29.6095L16.6343 8ZM11.8643 26.9211H24.55L18.2163 16.0655L11.8643 26.9211ZM29.2717 24.2326L35.6236 13.377H22.9197L29.2717 24.2326ZM18.2163 43.1536L24.55 32.2981H11.8643L18.2163 43.1536ZM35.6175 45.8422L29.2656 34.9866L22.9137 45.8422H35.6175ZM40.3331 43.1536L46.685 32.2981H33.9812L40.3331 43.1536ZM40.3272 16.0655L33.9812 26.9211H46.6791L40.3272 16.0655ZM65.257 40.0798C66.5101 40.6368 67.8693 40.9229 69.2436 40.9193V40.9132C70.1323 40.9257 71.0176 40.8038 71.8691 40.5518C72.5645 40.3476 73.2342 40.0661 73.8652 39.7123C74.4698 39.3691 75.039 38.969 75.5653 38.5175L76.5392 40.6802H80.6831V18.5748H76.5513L75.5773 20.7375C75.0511 20.286 74.4818 19.8858 73.8775 19.5426C73.2358 19.2163 72.5682 18.9426 71.8811 18.7241C71.0323 18.4589 70.1458 18.3298 69.2556 18.3418C67.8815 18.3381 66.5223 18.6243 65.269 19.1812C64.0115 19.7377 62.8801 20.5382 61.9418 21.5351C60.9603 22.579 60.1846 23.7947 59.6551 25.1198C59.0728 26.5524 58.78 28.0838 58.793 29.6274C58.7755 31.1724 59.0644 32.7058 59.6431 34.1411C60.1734 35.4659 60.9487 36.6815 61.9298 37.7259C62.8678 38.7227 63.9995 39.5232 65.257 40.0798ZM73.9622 25.2572C75.0309 26.3465 75.5653 27.8033 75.5653 29.6274C75.5653 31.4537 75.0309 32.9104 73.9622 33.9978C73.4388 34.5156 72.8171 34.9264 72.1328 35.2068C71.4484 35.4871 70.7149 35.6313 69.974 35.6313C69.2332 35.6313 68.4997 35.4871 67.8153 35.2068C67.1309 34.9264 66.5092 34.5156 65.9858 33.9978C64.9192 32.9104 64.3847 31.4537 64.3827 29.6274C64.3807 27.8013 64.9151 26.3445 65.9858 25.2572C66.5092 24.7394 67.1309 24.3286 67.8153 24.0483C68.4997 23.768 69.2332 23.6237 69.974 23.6237C70.7149 23.6237 71.4484 23.768 72.1328 24.0483C72.8171 24.3286 73.4388 24.7394 73.9622 25.2572ZM129.267 29.6335C129.275 31.1445 128.966 32.6408 128.359 34.0276C127.785 35.3605 126.964 36.5761 125.939 37.6124C124.922 38.634 123.718 39.4568 122.391 40.0379C121.034 40.6233 119.568 40.9253 118.087 40.9253C116.606 40.9253 115.141 40.6233 113.783 40.0379C112.455 39.4568 111.251 38.634 110.232 37.6124C109.208 36.5755 108.387 35.3601 107.812 34.0276C107.217 32.6371 106.911 31.1429 106.911 29.6335C106.911 28.1239 107.217 26.6298 107.812 25.2393C108.387 23.9068 109.208 22.6914 110.232 21.6546C111.251 20.633 112.455 19.8101 113.783 19.229C115.141 18.6437 116.606 18.3416 118.087 18.3416C119.568 18.3416 121.034 18.6437 122.391 19.229C123.718 19.8101 124.922 20.633 125.939 21.6546C126.964 22.6907 127.785 23.9064 128.359 25.2393C128.967 26.626 129.276 28.1225 129.267 29.6335ZM112.488 29.6335C112.488 31.4596 113.024 32.9164 114.094 34.0038C114.617 34.5218 115.239 34.9329 115.923 35.2134C116.607 35.4939 117.34 35.6382 118.081 35.6382C118.822 35.6382 119.555 35.4939 120.239 35.2134C120.923 34.9329 121.545 34.5218 122.068 34.0038C123.138 32.9164 123.674 31.4596 123.674 29.6335C123.674 27.8073 123.138 26.3505 122.068 25.2631C121.545 24.7451 120.923 24.334 120.239 24.0535C119.555 23.7731 118.822 23.6287 118.081 23.6287C117.34 23.6287 116.607 23.7731 115.923 24.0535C115.239 24.334 114.617 24.7451 114.094 25.2631C113.024 26.3505 112.488 27.8073 112.488 29.6335ZM151.583 40.0798C152.837 40.6363 154.197 40.9225 155.572 40.9193L155.57 40.9132C156.458 40.9255 157.344 40.8036 158.195 40.5518C158.889 40.3472 159.558 40.0655 160.188 39.7123C160.793 39.3684 161.363 38.9682 161.891 38.5175L162.865 40.6742H167V18.5688H162.865L161.894 20.7315C161.366 20.2807 160.796 19.8806 160.191 19.5367C159.55 19.2108 158.884 18.9371 158.198 18.7182C157.349 18.4532 156.463 18.3241 155.572 18.3358C154.197 18.3325 152.837 18.6187 151.583 19.1752C150.325 19.7318 149.194 20.5322 148.256 21.5291C147.276 22.5745 146.501 23.7899 145.969 25.1138C145.391 26.5495 145.103 28.0827 145.119 29.6274C145.103 31.1722 145.392 32.7053 145.969 34.1411C146.502 35.4647 147.277 36.6799 148.256 37.7259C149.194 38.7227 150.325 39.5232 151.583 40.0798ZM160.285 25.2632C161.356 26.3525 161.891 27.8093 161.891 29.6335C161.891 31.4596 161.354 32.9164 160.279 34.0038C159.756 34.5216 159.134 34.9323 158.45 35.2126C157.765 35.4929 157.032 35.6372 156.291 35.6372C155.55 35.6372 154.817 35.4929 154.132 35.2126C153.448 34.9323 152.826 34.5216 152.303 34.0038C151.234 32.9164 150.7 31.4596 150.7 29.6335C150.7 27.8073 151.236 26.3505 152.309 25.2632C152.832 24.7453 153.454 24.3345 154.138 24.0543C154.822 23.7739 155.556 23.6297 156.297 23.6297C157.038 23.6297 157.771 23.7739 158.456 24.0543C159.14 24.3345 159.762 24.7453 160.285 25.2632ZM144.584 18.3477L141.223 18.3686C140.624 18.3834 140.034 18.5143 139.487 18.754C138.889 18.9914 138.325 19.3069 137.811 19.692C137.28 20.0552 136.804 20.4918 136.399 20.9884L135.428 18.5987H131.293V40.7042H136.886V28.9105C136.886 27.4687 137.315 26.3077 138.174 25.4275C138.605 24.99 139.123 24.6464 139.696 24.419C140.269 24.1916 140.884 24.0853 141.501 24.1071L143.44 24.131H144.572L144.584 18.3477ZM111.185 45.2864C110.919 45.2182 110.645 45.1852 110.371 45.188V45.1671C109.955 45.1631 109.543 45.2444 109.161 45.4059C108.796 45.5635 108.465 45.7875 108.184 46.0662C107.903 46.3511 107.678 46.6855 107.522 47.0519C107.199 47.8363 107.199 48.714 107.522 49.4984C107.678 49.865 107.903 50.1993 108.184 50.4842C108.464 50.7639 108.796 50.9881 109.161 51.1444C109.543 51.306 109.955 51.3873 110.371 51.3835C110.645 51.3857 110.919 51.3535 111.185 51.2879C111.62 51.1752 112.019 50.9541 112.343 50.6456C112.481 50.515 112.607 50.3719 112.718 50.2184C112.966 49.8646 113.148 49.47 113.257 49.0533L111.484 48.9219C111.43 49.076 111.35 49.2203 111.248 49.3491C111.151 49.4668 111.034 49.5678 110.903 49.6479C110.741 49.7381 110.557 49.7825 110.371 49.7763C110.196 49.7787 110.022 49.7443 109.862 49.6753C109.701 49.6063 109.557 49.5042 109.439 49.3761C109.192 49.0656 109.058 48.6821 109.058 48.2873C109.058 47.8923 109.192 47.5089 109.439 47.1982C109.557 47.0701 109.701 46.968 109.862 46.899C110.022 46.83 110.196 46.7956 110.371 46.798C110.558 46.7916 110.743 46.8395 110.903 46.9354C111.034 47.0165 111.15 47.1173 111.248 47.2343C111.347 47.3602 111.427 47.5001 111.484 47.6494L113.257 47.518C113.148 47.1012 112.966 46.7068 112.718 46.3529C112.606 46.2 112.481 46.0569 112.343 45.9257C112.191 45.781 112.022 45.6555 111.838 45.5524C111.634 45.4329 111.414 45.3434 111.185 45.2864ZM114.1 48.2975C114.093 47.6892 114.267 47.0924 114.602 46.5817C114.937 46.071 115.417 45.6691 115.982 45.4269C116.361 45.2693 116.769 45.188 117.181 45.188C117.593 45.188 118.001 45.2693 118.38 45.4269C118.745 45.5844 119.077 45.8084 119.357 46.0871C119.638 46.372 119.863 46.7064 120.02 47.0729C120.342 47.8572 120.342 48.735 120.02 49.5193C119.863 49.8858 119.638 50.2202 119.357 50.5051C119.077 50.7848 118.746 51.009 118.38 51.1653C118.001 51.3229 117.593 51.4042 117.181 51.4042C116.769 51.4042 116.361 51.3229 115.982 51.1653C115.616 51.0096 115.284 50.7854 115.005 50.5051C114.722 50.2218 114.497 49.887 114.342 49.5193C114.178 49.1328 114.095 48.7169 114.1 48.2975ZM118.492 48.2975C118.514 47.8989 118.377 47.5077 118.111 47.2073C117.992 47.0809 117.848 46.9803 117.687 46.9115C117.527 46.8425 117.354 46.8071 117.179 46.8071C117.005 46.8071 116.832 46.8425 116.671 46.9115C116.511 46.9803 116.367 47.0809 116.248 47.2073C116.003 47.5186 115.87 47.9017 115.87 48.2961C115.87 48.6905 116.003 49.0736 116.248 49.3849C116.367 49.5113 116.511 49.6119 116.671 49.6807C116.832 49.7497 117.005 49.7852 117.179 49.7852C117.354 49.7852 117.527 49.7497 117.687 49.6807C117.848 49.6119 117.992 49.5113 118.111 49.3849C118.377 49.0853 118.513 48.6951 118.492 48.2975ZM121.45 43.1148H123.22V51.2728H121.45V43.1148ZM130.237 49.5224C130.155 49.7721 130.035 50.0085 129.883 50.2244C129.72 50.4532 129.521 50.6548 129.294 50.8219C129.045 51.0042 128.768 51.1464 128.474 51.243C128.133 51.3517 127.776 51.404 127.418 51.3984C127.019 51.4002 126.623 51.3189 126.257 51.1593C125.898 51.0017 125.574 50.7776 125.301 50.4993C125.022 50.214 124.799 49.8795 124.645 49.5135C124.322 48.7291 124.322 47.8512 124.645 47.0668C124.954 46.3287 125.542 45.7384 126.284 45.4208C127.035 45.1087 127.881 45.1023 128.637 45.4029C128.99 45.546 129.31 45.7597 129.575 46.0303C129.849 46.3147 130.063 46.6497 130.204 47.0161C130.361 47.4234 130.439 47.856 130.434 48.2917C130.434 48.3587 130.428 48.4255 130.419 48.4917C130.419 48.5366 130.411 48.5814 130.403 48.6263C130.402 48.634 130.401 48.6416 130.4 48.6493C130.399 48.6545 130.398 48.6599 130.397 48.6651L130.397 48.6682L130.396 48.6738L130.395 48.68C130.39 48.7114 130.386 48.7442 130.381 48.777C130.377 48.81 130.372 48.8428 130.367 48.8742H126.239C126.32 49.1153 126.467 49.3298 126.662 49.4956C126.889 49.6888 127.182 49.7902 127.482 49.7793C127.626 49.7827 127.77 49.7636 127.908 49.7226C128.009 49.6914 128.104 49.6451 128.19 49.5851C128.274 49.5366 128.346 49.4702 128.401 49.391L130.237 49.5224ZM127.482 46.804C127.18 46.795 126.886 46.9022 126.662 47.1026C126.458 47.2836 126.311 47.5192 126.239 47.7808H128.728C128.656 47.5184 128.508 47.2825 128.302 47.1026C128.078 46.9022 127.784 46.795 127.482 46.804ZM133.029 51.1116C133.367 51.2629 133.735 51.3404 134.106 51.3386L134.115 51.3267C134.355 51.3305 134.593 51.2984 134.823 51.2311C135.009 51.1754 135.189 51.0991 135.358 51.004C135.521 50.911 135.675 50.8029 135.818 50.6814L136.081 51.2788H137.391V45.3043H136.072L135.809 45.902C135.667 45.7784 135.513 45.6693 135.349 45.5762C135.176 45.4894 134.998 45.4156 134.814 45.3552C134.585 45.2844 134.346 45.2502 134.106 45.2536C133.735 45.252 133.367 45.3293 133.029 45.4806C132.686 45.6279 132.377 45.8434 132.122 46.114C131.863 46.3968 131.658 46.7237 131.517 47.0789C131.214 47.8629 131.214 48.7293 131.517 49.5135C131.658 49.8685 131.863 50.1954 132.122 50.4784C132.377 50.7488 132.686 50.9643 133.029 51.1116ZM133.152 48.837C133.087 48.6607 133.057 48.4734 133.065 48.2856C133.057 48.0975 133.087 47.9098 133.152 47.7329C133.217 47.556 133.317 47.3936 133.446 47.255C133.566 47.1304 133.711 47.0312 133.87 46.9634C134.03 46.8956 134.203 46.8606 134.377 46.8606C134.551 46.8606 134.723 46.8956 134.883 46.9634C135.043 47.0312 135.187 47.1304 135.307 47.255C135.553 47.5429 135.688 47.9075 135.688 48.2842C135.688 48.6609 135.553 49.0253 135.307 49.3133C135.187 49.4378 135.043 49.5372 134.883 49.6051C134.723 49.6729 134.551 49.7079 134.377 49.7079C134.203 49.7079 134.03 49.6729 133.87 49.6051C133.711 49.5372 133.566 49.4378 133.446 49.3133C133.318 49.1752 133.218 49.0133 133.152 48.837ZM141.84 45.2536C141.913 45.2488 141.986 45.2488 142.058 45.2536L142.221 45.2806L142.367 45.3073V47.1326L142.182 47.0699C142.114 47.0501 142.044 47.0352 141.973 47.025C141.886 47.0099 141.798 47.003 141.71 47.0041C141.56 46.9982 141.41 47.024 141.271 47.0797C141.132 47.1353 141.006 47.2196 140.903 47.3268C140.691 47.5769 140.583 47.8973 140.6 48.2229V51.267H138.828V45.3194H140.14L140.403 45.9645C140.512 45.8311 140.64 45.7134 140.782 45.615C140.92 45.5112 141.073 45.4269 141.235 45.3641C141.427 45.2876 141.633 45.25 141.84 45.2536ZM147.751 45.4269C147.439 45.3083 147.108 45.2496 146.774 45.2536C146.532 45.2504 146.291 45.2858 146.06 45.3582C145.866 45.4162 145.677 45.489 145.494 45.5762C145.32 45.6655 145.158 45.7748 145.01 45.9018L144.747 45.3194H143.437V51.2758H145.207V48.1035C145.188 47.7776 145.296 47.4568 145.509 47.2073C145.725 47.0004 146.015 46.8849 146.316 46.8849C146.616 46.8849 146.905 47.0004 147.122 47.2073C147.335 47.4568 147.443 47.7776 147.424 48.1035V51.2758H149.193V47.7778C149.199 47.4208 149.14 47.0656 149.018 46.7294C148.909 46.4326 148.739 46.1611 148.519 45.9317C148.302 45.7116 148.04 45.5393 147.751 45.4269ZM150.561 43.7002C150.552 43.4678 150.626 43.2396 150.77 43.0551C150.913 42.8705 151.117 42.7411 151.347 42.689C151.577 42.6371 151.817 42.6659 152.028 42.7701C152.239 42.8746 152.406 43.0482 152.501 43.2611C152.595 43.474 152.612 43.7131 152.548 43.9368C152.484 44.1608 152.343 44.3556 152.149 44.488C151.955 44.6202 151.721 44.6815 151.486 44.6616C151.252 44.6415 151.031 44.5415 150.863 44.3783C150.769 44.2916 150.693 44.1867 150.641 44.0702C150.589 43.9535 150.562 43.8277 150.561 43.7002ZM152.397 51.2758H150.627V45.3015H152.397V51.2758ZM158.298 45.4269C157.984 45.3079 157.651 45.2492 157.315 45.2536C157.071 45.25 156.828 45.2852 156.595 45.3582C156.401 45.4162 156.212 45.489 156.029 45.5762C155.855 45.6647 155.692 45.7742 155.545 45.9018L155.282 45.3194H153.972V51.2758H155.742V48.1035C155.723 47.7776 155.831 47.4568 156.044 47.2073C156.261 47.0004 156.549 46.8849 156.85 46.8849C157.151 46.8849 157.44 47.0004 157.657 47.2073C157.87 47.4568 157.978 47.7776 157.959 48.1035V51.2758H159.741V47.7778C159.747 47.4204 159.686 47.065 159.562 46.7294C159.454 46.4326 159.285 46.1611 159.066 45.9317C158.849 45.7116 158.587 45.5393 158.298 45.4269ZM163.609 45.2536C163.849 45.2498 164.088 45.284 164.317 45.3552C164.502 45.4156 164.682 45.4894 164.856 45.5762C165.019 45.6693 165.172 45.7784 165.312 45.9018L165.575 45.3043H166.888V51.2788C166.891 51.6503 166.817 52.0183 166.67 52.3602C166.531 52.685 166.325 52.9778 166.065 53.2206C165.788 53.47 165.465 53.6637 165.113 53.7911C164.716 53.9328 164.297 54.0026 163.876 53.9972C163.395 54.0189 162.918 53.9159 162.49 53.6985C161.811 53.3331 161.297 52.7266 161.053 52.0018L162.826 51.8732C162.878 51.9867 162.953 52.0884 163.047 52.1721C163.277 52.3687 163.572 52.4749 163.876 52.4707C164.042 52.4779 164.208 52.4518 164.364 52.3936C164.52 52.3357 164.663 52.2471 164.783 52.1332C164.895 52.0264 164.984 51.8976 165.043 51.7551C165.102 51.6127 165.131 51.4597 165.128 51.3058V50.4633C165.02 50.5681 164.897 50.6558 164.762 50.7233C164.615 50.8017 164.458 50.8619 164.296 50.9025C164.076 50.9593 163.849 50.9855 163.621 50.9802C163.254 50.9822 162.89 50.908 162.554 50.7621C162.224 50.6208 161.925 50.418 161.674 50.1647C161.417 49.9061 161.211 49.602 161.069 49.2684C160.778 48.544 160.778 47.7375 161.069 47.0131C161.211 46.6795 161.417 46.3754 161.674 46.1169C161.925 45.8635 162.224 45.6607 162.554 45.5194C162.89 45.3735 163.254 45.2993 163.621 45.3015L163.609 45.2536ZM162.638 48.1512C162.653 48.4205 162.761 48.6764 162.944 48.8764C163.127 49.0766 163.374 49.2086 163.643 49.2505C163.913 49.2924 164.189 49.2416 164.425 49.1066C164.661 48.9718 164.844 48.7607 164.941 48.509C165.039 48.2575 165.046 47.9802 164.962 47.7238C164.877 47.4675 164.706 47.2475 164.478 47.1008C164.249 46.9539 163.976 46.8892 163.704 46.9173C163.433 46.9453 163.179 47.0646 162.986 47.255C162.869 47.3725 162.777 47.5129 162.717 47.6671C162.657 47.8214 162.631 47.9862 162.638 48.1512ZM99.5818 20.7495L100.553 18.5867H104.866V41.8602C104.866 44.7439 103.934 47.0658 102.071 48.8263C100.208 50.5868 97.5744 51.467 94.1706 51.467C92.0935 51.469 90.4159 51.1005 89.1373 50.3619C87.9743 49.7252 86.9429 48.878 86.0974 47.8645C85.2441 46.7906 84.6008 45.5687 84.2009 44.2618H89.7967C90.0271 44.687 90.3407 45.0627 90.7192 45.3671C91.1428 45.6591 91.5996 45.9007 92.0803 46.0871C92.7496 46.3318 93.4603 46.4465 94.1734 46.4245C95.7604 46.4245 97.0078 46.0004 97.9151 45.152C98.3648 44.7308 98.7189 44.2201 98.9542 43.6537C99.1893 43.0872 99.3002 42.4779 99.2792 41.8662V38.7684C98.8391 39.1272 98.3709 39.4507 97.8788 39.7363C97.2486 40.0894 96.5799 40.3709 95.8855 40.5756C95.033 40.8275 94.1467 40.9493 93.2569 40.9372C91.8829 40.9408 90.5236 40.6547 89.2704 40.0977C88.0128 39.5411 86.8814 38.7406 85.9431 37.7438C84.9643 36.6978 84.189 35.4826 83.6564 34.1592C83.079 32.7235 82.7903 31.1901 82.8066 29.6454C82.7903 28.1006 83.079 26.5674 83.6564 25.1317C84.189 23.8082 84.9643 22.593 85.9431 21.5471C86.8814 20.5502 88.0128 19.7497 89.2704 19.1931C90.5236 18.6362 91.8829 18.35 93.2569 18.3537C94.1481 18.342 95.0355 18.4711 95.8855 18.7361C96.5714 18.955 97.238 19.2288 97.8788 19.5546C98.4835 19.8985 99.0538 20.2986 99.5818 20.7495ZM91.8195 35.2369C92.5065 35.5184 93.2453 35.6549 93.989 35.6378C94.7321 35.6545 95.4705 35.5178 96.1569 35.2363C96.8434 34.955 97.463 34.5353 97.9756 34.0038C99.0463 32.9164 99.5818 31.4596 99.5818 29.6335C99.5818 27.8073 99.0443 26.3505 97.9695 25.2632C97.4463 24.7453 96.8246 24.3345 96.1402 24.0543C95.4558 23.7739 94.7223 23.6297 93.9815 23.6297C93.2406 23.6297 92.5069 23.7739 91.8227 24.0543C91.1384 24.3345 90.5167 24.7453 89.9933 25.2632C88.9246 26.3505 88.3902 27.8073 88.3902 29.6335C88.3902 31.4596 88.9266 32.9164 89.9994 34.0038C90.5124 34.5355 91.1324 34.9556 91.8195 35.2369Z" fill="#323232"/>
</svg>
