<svg width="28" height="28" viewBox="0 0 28 28" fill="none" xmlns="http://www.w3.org/2000/svg">
    <path d="M19.25 8.7583C19.0943 8.60225 18.8829 8.51456 18.6625 8.51456C18.442 8.51456 18.2307 8.60225 18.075 8.7583L14 12.825L9.92498 8.74996C9.76928 8.59392 9.55791 8.50623 9.33748 8.50623C9.11704 8.50623 8.90567 8.59392 8.74998 8.74996C8.42498 9.07496 8.42498 9.59996 8.74998 9.92496L12.825 14L8.74998 18.075C8.42498 18.4 8.42498 18.925 8.74998 19.25C9.07498 19.575 9.59998 19.575 9.92498 19.25L14 15.175L18.075 19.25C18.4 19.575 18.925 19.575 19.25 19.25C19.575 18.925 19.575 18.4 19.25 18.075L15.175 14L19.25 9.92496C19.5666 9.6083 19.5666 9.07496 19.25 8.7583Z" fill="#0D719A"/>
</svg>
