<svg width="40" height="40" viewBox="0 0 40 40" fill="none" xmlns="http://www.w3.org/2000/svg">
    <path d="M26.3007 13.71C26.1139 13.5227 25.8602 13.4175 25.5957 13.4175C25.3312 13.4175 25.0775 13.5227 24.8907 13.71L20.0007 18.59L15.1107 13.7C14.9239 13.5127 14.6702 13.4075 14.4057 13.4075C14.1412 13.4075 13.8875 13.5127 13.7007 13.7C13.3107 14.09 13.3107 14.72 13.7007 15.11L18.5907 20L13.7007 24.89C13.3107 25.28 13.3107 25.91 13.7007 26.3C14.0907 26.69 14.7207 26.69 15.1107 26.3L20.0007 21.41L24.8907 26.3C25.2807 26.69 25.9107 26.69 26.3007 26.3C26.6907 25.91 26.6907 25.28 26.3007 24.89L21.4107 20L26.3007 15.11C26.6807 14.73 26.6807 14.09 26.3007 13.71Z" fill="#0D719A"/>
</svg>
