<svg width="72" height="108" viewBox="0 0 72 108" fill="none" xmlns="http://www.w3.org/2000/svg">
    <path d="M57.0232 37.7534C48.3112 33.6926 36.5578 30.6941 22.9433 29.0611C18.4764 11.0912 9.57429 0 -0.5 0C-10.5743 0 -19.4764 11.0912 -23.9354 29.0611C-37.5499 30.6941 -49.3033 33.6926 -58.0153 37.7534C-67.8203 42.3199 -73 47.9414 -73 53.9964C-73 60.0514 -67.8203 65.6728 -58.0153 70.2466C-49.3033 74.3074 -37.5499 77.3059 -23.9354 78.9389C-19.4764 96.9088 -10.5664 108 -0.5 108C9.56637 108 18.4764 96.9088 22.9354 78.9389C36.5499 77.3059 48.3033 74.3074 57.0153 70.2466C66.8203 65.6801 72 60.0586 72 53.9964C72 47.9342 66.8203 42.3199 57.0153 37.7534H57.0232Z" fill="white" fill-opacity="0.1"/>
</svg>
