<svg width="64" height="64" viewBox="0 0 64 64" fill="none" xmlns="http://www.w3.org/2000/svg">
    <rect width="64" height="64" rx="32" fill="white"/>
    <g clip-path="url(#clip0_5114_343)">
        <path d="M51.554 24.9753C52.7689 24.5136 53.4347 23.193 53.0903 21.9298C52.7759 20.7765 52.3296 19.4569 51.7846 18.6726C50.6176 16.9961 49.1791 15.5132 47.5589 14.2813C44.2826 11.7893 40.3234 10.3245 36.2345 10.0493C28.0886 9.50186 18.9006 13.4859 15.4356 21.3018C14.4183 23.5972 13.6816 26.1356 13.3522 28.6186C13.1126 30.4221 12.9868 33.3144 13.2384 34.758C13.2414 34.7721 13.2434 34.7872 13.2464 34.8013C13.5518 36.4788 14.596 37.499 16.1773 36.8962C18.4424 36.0332 21.8914 34.7822 25.3783 33.7781C30.751 32.2316 36.7237 30.3243 38.1841 29.8001C40.593 28.9372 49.5784 25.7253 51.554 24.9743V24.9753Z" fill="#7BBB96"/>
        <path d="M33.6369 22.2758C33.2985 22.2758 32.9402 22.2193 32.5718 22.1054C32.1895 21.9874 31.902 21.8423 31.6684 21.6507C31.3539 21.3917 31.1562 21.0509 31.1113 20.692C31.0904 20.5267 31.2072 20.3755 31.3709 20.3543C31.5346 20.3341 31.6843 20.4511 31.7053 20.6164C31.7302 20.818 31.855 21.0237 32.0467 21.182C32.2184 21.3231 32.441 21.433 32.7465 21.5277C33.1648 21.6568 33.9634 21.8151 34.6073 21.4229C34.749 21.3362 34.9327 21.3826 35.0185 21.5257C35.1044 21.6689 35.0585 21.8544 34.9167 21.9411C34.5514 22.1639 34.1141 22.2758 33.6369 22.2758Z" fill="black"/>
        <path d="M30.0264 20.2525C30.0065 20.2525 29.9865 20.2505 29.9655 20.2464C29.8038 20.2132 29.699 20.0529 29.7329 19.8896L29.8078 19.5216C29.8408 19.3583 29.9995 19.2524 30.1612 19.2867C30.3229 19.32 30.4277 19.4803 30.3938 19.6436L30.3189 20.0115C30.29 20.1547 30.1652 20.2535 30.0254 20.2535L30.0264 20.2525Z" fill="black"/>
        <path d="M36.6878 21.8977C36.6578 21.8977 36.6269 21.8927 36.5959 21.8836C36.4382 21.8332 36.3513 21.6628 36.4023 21.5036L36.529 21.1033C36.579 20.9441 36.7477 20.8564 36.9054 20.9078C37.0631 20.9582 37.15 21.1286 37.0991 21.2878L36.9723 21.6881C36.9313 21.8161 36.8135 21.8987 36.6868 21.8987L36.6878 21.8977Z" fill="black"/>
        <path d="M54.9961 30.8949C55.0041 30.1973 55.0061 29.4835 54.9232 28.7899C54.8643 28.3 54.7365 27.7889 54.3981 27.4159C53.4857 26.4118 52.161 26.9935 51.1477 27.3332C49.6603 27.8332 48.1729 28.3323 46.6855 28.8323C43.7106 29.8313 40.7348 30.8303 37.76 31.8294C37.147 32.035 36.4023 32.1782 35.8902 32.5986C35.436 32.9716 35.2383 33.528 35.1255 34.0855C34.8071 35.6471 34.4317 37.6613 34.0374 39.2037C33.2538 42.2633 32.6159 44.9035 31.6875 47.9218C31.4808 48.5932 31.2752 49.2636 31.0686 49.935C30.7371 50.5479 30.8869 51.3705 31.3281 51.9451C32.0668 52.9069 33.4185 53.0379 34.5305 53.0793C36.8246 53.166 39.1266 52.7103 41.2539 51.8494C45.6463 50.0731 49.287 46.6838 51.6848 42.596C53.1054 40.1745 54.1156 37.503 54.6726 34.7448C54.9442 33.4 54.9811 32.2649 54.9971 30.8928L54.9961 30.8949Z" fill="#FDC93A"/>
        <path d="M45.7842 40.3682C45.5996 40.3682 45.4189 40.3379 45.2502 40.2764C45.0944 40.22 45.0136 40.0466 45.0705 39.8893C45.1274 39.7321 45.2981 39.6504 45.4538 39.7079C45.8182 39.8399 46.2804 39.7371 46.6328 39.4447C46.8753 39.2431 47.2896 38.8288 47.3326 38.3177C47.3465 38.1513 47.4933 38.0294 47.657 38.0425C47.8217 38.0566 47.9435 38.2038 47.9295 38.3701C47.8676 39.102 47.3286 39.6504 47.0131 39.9125C46.6557 40.2089 46.2105 40.3682 45.7842 40.3682Z" fill="black"/>
        <path d="M44.5222 38.6442C44.3655 38.6442 44.2337 38.5212 44.2237 38.3609L44.1818 37.7006C44.1708 37.5342 44.2966 37.3901 44.4613 37.379C44.627 37.3689 44.7688 37.4949 44.7798 37.6613L44.8217 38.3216C44.8327 38.4879 44.7069 38.6321 44.5422 38.6432C44.5352 38.6432 44.5292 38.6432 44.5232 38.6432L44.5222 38.6442Z" fill="black"/>
        <path d="M46.1692 38.3359C46.0125 38.3359 45.8807 38.2129 45.8707 38.0526L45.8288 37.3923C45.8178 37.2259 45.9436 37.0818 46.1083 37.0707C46.275 37.0626 46.4158 37.1866 46.4268 37.353L46.4687 38.0133C46.4797 38.1796 46.3539 38.3238 46.1892 38.3349C46.1822 38.3349 46.1762 38.3349 46.1702 38.3349L46.1692 38.3359Z" fill="black"/>
        <path d="M38.9857 45.2534C38.5564 44.7836 38.0333 44.3703 37.5262 43.958C37.8846 43.4045 38.2609 42.6011 37.64 42.2936C37.4943 42.221 37.3395 42.2361 37.2167 42.349C36.8743 42.6636 36.5319 42.9791 36.1895 43.2936C34.6652 43.3088 33.1408 43.3592 31.6184 43.4428C31.6484 43.3219 31.6793 43.2009 31.7083 43.0789C32.1735 41.1313 32.4829 38.9931 32.7125 37.001C32.8054 36.1966 32.7435 35.383 32.3412 34.6723C31.9718 34.0201 31.3429 33.641 30.6082 33.6793C29.6858 33.7267 28.5607 34.0463 27.6912 34.3185C27.0653 34.515 25.6408 34.9324 23.9967 35.4828C24.0935 33.8053 24.1504 32.1268 24.1674 30.4463C24.4788 30.1005 24.7913 29.7548 25.1027 29.409C25.2145 29.285 25.2285 29.1287 25.1576 28.9815C24.8532 28.3545 24.0575 28.7346 23.5095 29.0965C23.1022 28.5844 22.6919 28.0561 22.2267 27.6226C21.7376 27.167 21.0837 27.4996 20.5556 27.7214C20.0904 27.916 19.3377 28.1579 19.5414 28.8092C19.6532 29.167 19.9287 29.5229 20.1134 29.8445L20.7403 30.9332C20.7253 31.2085 20.7293 31.4837 20.7084 31.7065C20.5436 33.4313 20.3799 35.1572 20.2152 36.8821C18.1418 37.7208 16.3938 38.5263 16.1113 38.6473C15.6781 38.8338 15.2788 39.0777 14.9823 39.4134C14.4732 39.9891 14.6299 40.7361 15.0132 41.3127C15.127 41.4831 15.3257 41.7694 15.5703 42.1142L15.4325 42.1696C14.7696 42.468 14.1058 42.7674 13.4429 43.0658C12.7382 43.3834 12.0334 43.7009 11.3296 44.0185C11.0461 43.7513 10.7147 43.5457 10.3383 43.4317C10.1686 43.3803 9.97795 43.4801 10.0009 43.6818C10.0798 44.3844 10.2405 45.08 10.4801 45.7454C10.5979 46.075 10.7356 46.3966 10.8924 46.7101C10.9752 46.8754 11.0631 47.0388 11.1559 47.199C11.2348 47.3372 11.3116 47.4894 11.4165 47.6093C11.7199 47.9581 12.1522 47.7001 12.4996 47.567C12.8799 47.4218 13.2613 47.2757 13.6416 47.1305C14.4103 46.8361 16.3629 46.1073 17.1316 45.8139C17.474 45.6829 17.8154 45.5528 18.1578 45.4218C18.1668 45.4298 18.1757 45.4389 18.1847 45.4459C19.6162 46.7071 20.7643 47.9713 22.2427 49.1739C22.3016 49.2223 22.3635 49.2717 22.4254 49.3231C21.7915 50.3917 21.1975 51.4835 20.6475 52.5985C20.359 53.1832 20.0834 53.7729 19.8189 54.3687C19.6891 54.6611 19.5494 54.9524 19.4415 55.2538C19.3387 55.5411 19.3417 55.8405 19.5304 56.0926C19.7161 56.3395 19.9866 56.4998 20.2442 56.6611C20.5516 56.8527 20.8681 57.0311 21.1915 57.1944C21.8314 57.517 22.4983 57.7811 23.1831 57.9908C23.3468 58.0412 23.4666 57.8789 23.4716 57.7368C23.4835 57.395 23.2869 57.1168 23.194 56.8013C23.1451 56.6349 23.1791 56.4837 23.2499 56.3295C23.3398 56.1349 23.4466 55.9464 23.5454 55.7559C23.9637 54.9534 24.381 54.152 24.7993 53.3495C25.0339 52.8989 25.2694 52.4472 25.504 51.9966C25.532 51.9432 25.538 51.8908 25.529 51.8444C25.5739 51.7577 25.6188 51.672 25.6648 51.5853C26.086 51.793 26.5203 51.9744 26.9595 52.1226C27.7342 52.3847 28.4729 52.1609 28.9261 51.425C29.4073 50.6437 29.6878 49.686 29.9893 48.8241C30.1769 48.2868 30.3566 47.7515 30.5313 47.2162C32.0018 47.073 33.4722 46.9309 34.9427 46.7877C35.1633 46.7666 35.4358 46.7706 35.7084 46.7555L36.7865 47.3886C37.1049 47.5761 37.4573 47.8533 37.8117 47.9662C38.4566 48.1719 38.6962 47.4118 38.8888 46.942C39.1075 46.4087 39.4379 45.7474 38.9867 45.2544L38.9857 45.2534Z" fill="#F87761"/>
        <path d="M26.3429 43.1082C26.3279 43.1082 26.3119 43.1072 26.297 43.1042C24.9962 42.9006 23.3211 41.8038 22.7132 40.7563C22.6293 40.6122 22.6772 40.4267 22.82 40.342C22.9627 40.2573 23.1464 40.3057 23.2303 40.4499C23.7524 41.3481 25.2578 42.328 26.3888 42.5054C26.5525 42.5306 26.6643 42.6858 26.6384 42.8502C26.6154 42.9994 26.4876 43.1062 26.3429 43.1062V43.1082Z" fill="black"/>
        <path d="M24.8095 40.3592C24.7307 40.3592 24.6528 40.328 24.5939 40.2665C24.4791 40.1465 24.4831 39.955 24.6019 39.839L24.9114 39.5376C25.0302 39.4217 25.2198 39.4257 25.3346 39.5457C25.4494 39.6656 25.4454 39.8572 25.3266 39.9731L25.0172 40.2745C24.9593 40.331 24.8844 40.3592 24.8095 40.3592Z" fill="black"/>
        <path d="M26.4516 41.5277C26.3728 41.5277 26.2949 41.4964 26.236 41.4349C26.1212 41.315 26.1252 41.1234 26.244 41.0075L26.5535 40.7061C26.6723 40.5901 26.8619 40.5942 26.9767 40.7141C27.0915 40.8341 27.0875 41.0256 26.9687 41.1416L26.6593 41.443C26.6014 41.4994 26.5265 41.5277 26.4516 41.5277Z" fill="black"/>
        <path d="M23.5916 44.7103C23.2881 44.7103 23.0046 44.6065 22.799 44.4109C22.4845 44.1115 22.3747 43.6014 22.5195 43.1124C22.6383 42.7132 22.8868 42.3896 23.1065 42.1033L23.5327 41.5479C23.6345 41.4158 23.8222 41.3916 23.953 41.4944C24.0838 41.5973 24.1077 41.7868 24.0059 41.9188L23.5796 42.4743C23.383 42.7304 23.1793 42.9955 23.0935 43.2858C23.0276 43.5086 23.0376 43.807 23.2103 43.9713C23.37 44.1236 23.6405 44.1286 23.8382 44.0661C24.1007 43.9834 24.3343 43.7929 24.547 43.6004C24.8714 43.305 25.1729 42.9814 25.4454 42.6356C25.5482 42.5046 25.7369 42.4834 25.8667 42.5872C25.9964 42.6911 26.0174 42.8816 25.9146 43.0126C25.6221 43.3836 25.2967 43.7324 24.9483 44.05C24.6977 44.2778 24.3912 44.5268 24.0169 44.6448C23.8751 44.6891 23.7324 44.7113 23.5926 44.7113L23.5916 44.7103Z" fill="black"/>
        <path d="M24.0738 43.3824C23.981 43.3824 23.8891 43.3391 23.8312 43.2574C23.7344 43.1223 23.7643 42.9328 23.8981 42.835C24.1068 42.6828 24.2805 42.4812 24.4012 42.2524C24.4791 42.1052 24.6608 42.0497 24.8065 42.1273C24.9523 42.206 25.0082 42.3895 24.9303 42.5366C24.7666 42.8461 24.531 43.1193 24.2495 43.325C24.1966 43.3633 24.1347 43.3824 24.0738 43.3824Z" fill="black"/>
        <path d="M21.8165 28.9564C21.7277 28.9564 21.6398 28.9171 21.5809 28.8415C21.3264 28.5159 20.958 28.036 20.958 28.036L21.4312 27.665C21.4312 27.665 21.7986 28.1429 22.0511 28.4675C22.1539 28.5985 22.131 28.7891 22.0012 28.8919C21.9463 28.9353 21.8804 28.9564 21.8165 28.9564Z" fill="black"/>
        <path d="M20.9569 29.2407C20.8661 29.2407 20.7762 29.1983 20.7173 29.1197L20.1763 28.3898C20.0774 28.2557 20.1044 28.0662 20.2362 27.9664C20.3689 27.8666 20.5566 27.8938 20.6554 28.0269L21.1965 28.7568C21.2953 28.8908 21.2684 29.0804 21.1366 29.1802C21.0827 29.2205 21.0198 29.2407 20.9569 29.2407Z" fill="black"/>
        <path d="M38.5785 46.5346C38.5785 46.5346 38.1033 46.1626 37.7809 45.9056C37.6511 45.8017 37.6291 45.6122 37.731 45.4812C37.8338 45.3501 38.0215 45.3269 38.1512 45.4308C38.4727 45.6868 38.9449 46.0568 38.9459 46.0568L38.5785 46.5346Z" fill="black"/>
        <path d="M38.4069 47.3846C38.344 47.3846 38.2811 47.3654 38.2272 47.3241L37.5045 46.7777C37.3717 46.6779 37.3448 46.4884 37.4446 46.3543C37.5434 46.2202 37.7311 46.193 37.8638 46.2938L38.5866 46.8402C38.7194 46.94 38.7463 47.1295 38.6465 47.2636C38.5876 47.3432 38.4978 47.3846 38.4069 47.3846Z" fill="black"/>
    </g>
    <defs>
        <clipPath id="clip0_5114_343">
            <rect width="45" height="48" fill="white" transform="translate(10 10)"/>
        </clipPath>
    </defs>
</svg>
