<svg width="65" height="64" viewBox="0 0 65 64" fill="none" xmlns="http://www.w3.org/2000/svg">
    <rect x="0.5" width="64" height="64" rx="32" fill="white"/>
    <path d="M52.4867 16.7934C51.632 16.8851 50.7773 17.0111 49.9283 17.1544C50.284 16.2377 50.7142 15.3497 51.1616 14.4616C51.6492 13.482 51.4312 12.296 50.4389 11.7174C49.544 11.1903 48.1788 11.4596 47.6912 12.4393C46.8767 14.0721 46.0506 15.7278 45.5745 17.5038C45.5286 17.6643 45.5057 17.8247 45.4999 17.9736C44.4732 18.1627 43.4464 18.3346 42.4196 18.4663C41.3297 15.2351 39.6088 12.445 37.0447 11.1215C30.8094 7.89603 26.4039 12.0611 23.7538 18.0997C22.8991 17.9335 22.0501 17.7387 21.2011 17.5267C20.4497 15.9741 19.7957 14.3757 19.0328 12.8231C17.8856 10.5028 14.4266 12.5366 15.5681 14.8455C15.7919 15.3038 16.0098 15.7679 16.2221 16.232C15.4878 16.0486 14.7536 15.871 14.0136 15.7163C11.4896 15.1893 10.4112 19.0564 12.9467 19.5835C13.7096 19.7439 14.4725 19.9215 15.2297 20.1106C14.6962 20.7408 14.1685 21.371 13.5891 21.9611C11.7765 23.8059 14.6102 26.6418 16.4286 24.7971C17.507 23.7028 18.4133 22.4538 19.486 21.3596C19.5204 21.3195 19.5491 21.2794 19.5778 21.245C20.5071 21.4799 21.4363 21.7033 22.3713 21.8924C20.7136 27.4668 20.3005 33.5971 21.0979 36.8971C21.9755 40.5351 24.379 43.5314 27.6774 45.0496C27.6257 47.5189 27.6028 49.9595 28.1478 52.4059C28.5493 54.2106 31.3142 53.4429 30.9126 51.6439C30.4939 49.7533 30.4709 47.8455 30.5111 45.9262C32.1803 46.2299 33.666 46.1668 34.9796 45.8231V52.022C34.9796 53.8668 37.8478 53.8668 37.8478 52.022V44.4481C41.605 41.721 43.3431 36.1236 43.8422 31.2538C44.0888 28.8361 43.9913 25.5648 43.3947 22.3278C44.3871 22.1788 45.3737 21.9955 46.3604 21.8122C47.6683 22.5111 48.8442 23.3705 49.9054 24.4132C51.7525 26.2236 54.5919 23.3934 52.7448 21.5773C52.4925 21.3309 52.2286 21.096 51.9647 20.8611C52.1368 20.8382 52.3032 20.8153 52.4752 20.7981C55.0221 20.5231 55.0508 16.507 52.4752 16.7877L52.4867 16.7934Z" fill="#F87761"/>
    <path d="M34.44 23.0784C33.069 23.6112 31.4743 23.594 30.132 22.9752C29.1339 22.5169 28.2563 23.995 29.2659 24.4591C31.0154 25.2612 33.0862 25.4445 34.8989 24.7341C35.9199 24.3331 35.4782 22.6716 34.44 23.0784Z" fill="#1C1C1C"/>
    <path d="M27.7867 19.3198C26.3068 19.3198 26.3068 21.6115 27.7867 21.6115C29.2667 21.6115 29.2667 19.3198 27.7867 19.3198Z" fill="#1C1C1C"/>
    <path d="M36.9645 19.1313C35.4845 19.1313 35.4845 21.423 36.9645 21.423C38.4444 21.423 38.4444 19.1313 36.9645 19.1313Z" fill="#1C1C1C"/>
</svg>
