<svg width="65" height="64" viewBox="0 0 65 64" fill="none" xmlns="http://www.w3.org/2000/svg">
    <g clip-path="url(#clip0_5114_374)">
        <rect x="0.5" width="64" height="64" rx="32" fill="white"/>
        <g clip-path="url(#clip1_5114_374)">
            <path d="M54.2173 13.239C53.5394 13.0431 52.8047 13.0334 52.1074 13.0889C51.3393 13.1515 50.4504 13.2154 49.7698 13.6059C49.7323 13.6267 49.6962 13.6517 49.6601 13.6754C49.4114 13.3696 49.0836 13.1348 48.6614 13.1695C47.9836 13.2265 47.6641 13.9616 47.5169 14.5105C47.1363 15.9293 47.1044 17.5426 46.6307 18.935C45.989 20.8096 45.2515 22.7481 44.6556 24.6269C43.4778 24.4671 42.1166 24.2864 40.8748 24.0766C40.4193 22.7759 39.9498 21.4794 39.4692 20.1885C38.1288 16.5921 36.8024 12.9041 35.1051 9.45789C34.4203 8.06551 33.4814 6.79263 32.0452 6.11728C30.7256 5.49612 29.2728 5.59478 28.0949 6.47024C26.6171 7.56942 25.6726 9.46623 24.7114 10.9879C23.5086 12.893 22.3529 14.8273 21.2446 16.7895C19.0069 20.7512 13.6525 31.8709 13.2413 33.1785C12.8219 34.0039 12.4829 34.8697 12.4996 35.7354C12.5288 37.2195 13.7539 38.038 15.0831 38.3159C15.8109 38.4674 16.5582 38.5535 17.311 38.6174C17.2152 39.4401 17.129 40.2641 17.0485 41.0909C16.9818 41.7774 16.9151 42.4639 16.8485 43.1503C16.4623 43.4713 16.0748 43.791 15.6887 44.112C15.2025 44.5149 14.6817 44.829 14.5831 45.4932C14.5261 45.8768 14.8664 46.2061 15.2234 46.2478C15.6706 46.3006 16.1179 46.2811 16.5526 46.1978C16.4207 47.5054 16.2693 48.813 16.3221 50.1276C16.2887 50.2401 16.2901 50.3596 16.3387 50.4777C16.3693 50.8238 16.7207 51.0461 17.0554 51.0433C17.6666 51.2073 18.186 50.6667 18.5361 50.0428C18.768 50.7459 19.2333 51.4435 20.057 51.2768C20.7737 51.1309 21.1043 50.2902 21.3473 49.5953C21.4737 50.0928 21.7237 50.5458 22.2196 50.6528C22.2377 53.4988 22.2654 55.5387 22.2654 55.5387C22.2599 55.5429 22.1154 55.5457 22.1099 55.5498C21.239 56.2738 20.5917 57.0812 19.8931 57.9719C19.6806 58.2429 19.7986 58.5778 20.0112 58.7362C20.0792 58.8863 20.2181 59.0016 20.432 59.0016H37.3482C37.6927 59.0016 37.8469 58.707 37.8122 58.443C37.8274 58.3179 37.7941 58.1845 37.6913 58.065C36.9774 57.2326 36.2635 56.4003 35.5495 55.5679C35.8982 50.5889 36.7579 45.2459 37.4288 40.1821C38.9567 40.1404 40.5831 40.0876 42.0374 39.6749C43.6055 39.2303 44.5875 38.056 44.5417 36.3899C44.5153 35.4714 44.3 34.5473 44.0264 33.6357C44.0264 33.6357 44.0292 33.6357 44.0306 33.6357C45.8654 33.7677 47.6613 34.0137 49.11 32.6463C50.3031 31.5207 50.8726 29.8699 51.5088 28.4024C52.3838 26.3861 53.2575 24.3712 54.1325 22.3549C54.5339 21.4308 54.934 20.5067 55.3354 19.5826C55.7076 18.7238 56.1368 17.8595 56.3118 16.9326C56.6243 15.272 55.9035 13.7268 54.2173 13.239Z" fill="#86CDD7"/>
            <path d="M26.6604 45.8695C26.627 45.6416 26.4145 45.4846 26.1867 45.5193C26.0687 45.5374 25.9506 45.5555 25.8339 45.5735C25.6339 45.3331 25.3158 45.2011 24.9853 45.2539C22.4226 45.6666 19.7391 46.1558 17.4376 46.6296C17.4334 46.5782 17.4418 46.5407 17.4584 46.5101C17.5557 46.3211 18.0446 45.9362 20.2322 45.4721C20.4572 45.4249 20.6017 45.2025 20.5531 44.9774C20.5058 44.7523 20.285 44.6078 20.0586 44.6564C17.9988 45.0927 17.0306 45.5193 16.7167 46.128C16.5959 46.3628 16.5862 46.5977 16.6181 46.8006C16.5042 46.8242 16.3903 46.8492 16.2778 46.8728C15.9528 46.9437 15.7056 47.1785 15.6056 47.4717C15.4861 47.4981 15.3667 47.5232 15.2486 47.5496C15.0236 47.5996 14.8819 47.8219 14.9319 48.047C14.975 48.2416 15.1472 48.3736 15.3389 48.3736C15.3694 48.3736 15.4 48.3708 15.4306 48.3639C15.5292 48.3416 15.6292 48.3208 15.7292 48.2986C15.8986 48.5362 16.1737 48.6849 16.4709 48.6849C16.5348 48.6849 16.6001 48.6779 16.6653 48.664C19.1627 48.1249 22.3004 47.5412 25.2756 47.0618C25.645 47.0021 25.927 46.7283 26.0159 46.3878C26.1131 46.3726 26.2117 46.3573 26.3089 46.342C26.5367 46.3086 26.6937 46.096 26.659 45.8681L26.6604 45.8695Z" fill="black"/>
            <path d="M29.0028 58.8333C29.0028 58.8333 28.9972 58.8333 28.993 58.8333C28.7625 58.8277 28.5805 58.6373 28.5861 58.4067L29.0153 39.055C29.0208 38.8243 29.2111 38.6381 29.4417 38.6478C29.6722 38.6534 29.8542 38.8438 29.8486 39.0744L29.4194 58.4261C29.4139 58.6526 29.2292 58.8333 29.0028 58.8333Z" fill="black"/>
            <path d="M22.5545 51.0957C22.4781 51.0957 22.4003 51.0901 22.3211 51.0776C21.7711 50.9928 21.2683 50.626 21.0113 50.1215C20.9071 49.9159 20.9877 49.6658 21.1933 49.5601C21.3988 49.4545 21.6489 49.5365 21.7544 49.7422C21.8878 50.0048 22.1669 50.2105 22.4489 50.2536C22.6364 50.2827 22.7906 50.2369 22.9073 50.1188C23.3573 49.6602 23.517 48.9487 23.6434 48.2595C24.4254 43.9809 25.3963 38.3279 25.981 32.5458C26.0047 32.3165 26.2102 32.1484 26.438 32.1734C26.6672 32.197 26.8339 32.4013 26.8103 32.6305C26.2227 38.4419 25.2477 44.117 24.4629 48.4109C24.3143 49.228 24.117 50.0785 23.5017 50.7052C23.2489 50.9623 22.9184 51.0984 22.5559 51.0984L22.5545 51.0957Z" fill="black"/>
            <path d="M32.939 20.2273C32.8598 20.2273 32.7792 20.2051 32.707 20.1564C32.5153 20.0286 32.4639 19.7701 32.5917 19.5783C32.9348 19.0642 33.532 18.7321 34.1501 18.7098C34.771 18.6862 35.3877 18.9766 35.7669 19.4644C35.9086 19.6464 35.8752 19.9077 35.6947 20.0494C35.5127 20.1912 35.2516 20.1578 35.1099 19.9772C34.8946 19.7006 34.5293 19.5311 34.1807 19.5436C33.8307 19.5561 33.4793 19.752 33.2848 20.0425C33.2042 20.162 33.0723 20.2273 32.9376 20.2273H32.939Z" fill="black"/>
            <path d="M26.8454 20.1996C26.7829 20.1996 26.7204 20.1857 26.6607 20.1565C26.4538 20.055 26.3704 19.8049 26.4718 19.5978C26.7079 19.1198 27.2038 18.7808 27.7344 18.7335C28.2664 18.6877 28.8122 18.9322 29.1303 19.3602C29.2678 19.545 29.2289 19.8063 29.0428 19.9439C28.8581 20.0814 28.5969 20.0425 28.4594 19.8563C28.3136 19.659 28.0525 19.5409 27.808 19.5631C27.5635 19.5853 27.3274 19.7465 27.2177 19.9675C27.1455 20.1148 26.9968 20.1996 26.8441 20.1996H26.8454Z" fill="black"/>
            <path d="M30.9499 24.4376C30.2999 24.4376 29.6359 24.2889 29.2665 23.9971C29.0859 23.8553 29.054 23.5927 29.197 23.4121C29.3387 23.2314 29.6012 23.1994 29.7818 23.3426C30.1929 23.665 31.536 23.6983 31.9597 23.3968C32.1472 23.2634 32.4069 23.3064 32.5403 23.494C32.6736 23.6816 32.6306 23.9415 32.443 24.0749C32.1014 24.3181 31.5305 24.4376 30.9499 24.4376Z" fill="black"/>
            <path d="M52.6638 21.8171C52.4443 21.8171 52.2596 21.6448 52.2485 21.4224C52.2263 20.9917 51.9915 20.5386 51.5887 20.1496C51.197 19.7702 50.6956 19.4825 50.2109 19.2046C50.0109 19.0907 49.9414 18.835 50.0567 18.6363C50.1706 18.4362 50.4262 18.3667 50.6248 18.482C51.1554 18.785 51.7026 19.099 52.1693 19.5506C52.7235 20.087 53.0472 20.736 53.0819 21.378C53.0944 21.6073 52.918 21.8046 52.6874 21.8171C52.6805 21.8171 52.6721 21.8171 52.6652 21.8171H52.6638Z" fill="black"/>
        </g>
    </g>
    <defs>
        <clipPath id="clip0_5114_374">
            <rect width="64" height="64" fill="white" transform="translate(0.5)"/>
        </clipPath>
        <clipPath id="clip1_5114_374">
            <rect width="49" height="59" fill="white" transform="translate(12.5)"/>
        </clipPath>
    </defs>
</svg>
