<svg width="311" height="80" viewBox="0 0 311 80" fill="none" xmlns="http://www.w3.org/2000/svg">
<g clip-path="url(#clip0_1_104)">
<path fill-rule="evenodd" clip-rule="evenodd" d="M40.8245 52.5384C40.8245 52.5384 43.555 43.5431 54.6201 43.4989C65.6853 43.4547 68.2552 52.4286 68.2552 52.4286V20.3231H13.3936V52.5384C13.3936 52.5384 16.3305 43.4989 27.3851 43.4989C38.4397 43.4989 40.8245 52.5384 40.8245 52.5384Z" fill="#FFAF2D"/>
<path d="M91.8665 20.3231H97.3246V52.0271H91.8665V20.3231ZM113.656 46.4447C112.804 47.2971 111.652 47.8084 110.501 47.8084C109.264 47.8084 108.113 47.2971 107.218 46.3168C106.748 45.8055 106.407 45.2089 106.151 44.5271H119.882C120.01 43.9305 120.053 43.3765 120.053 42.78C120.053 37.3681 115.661 33.0215 110.288 33.0215C104.915 33.0215 100.523 37.3681 100.523 42.78C100.523 48.1492 104.915 52.5384 110.288 52.5384C113.23 52.5384 115.916 51.2173 117.665 49.1294L113.656 46.4447ZM106.066 41.2886C106.322 40.5215 106.706 39.7971 107.218 39.2005C108.113 38.2631 109.264 37.7518 110.501 37.7518C111.695 37.7518 112.889 38.2631 113.742 39.2005C114.296 39.7971 114.68 40.5215 114.893 41.2886H106.066ZM139.327 33.6608L138.9 35.4079C137.195 33.9592 134.977 33.1068 132.589 33.1068C127.174 33.1068 122.825 37.4108 122.825 42.8226C122.825 48.1918 127.174 52.5384 132.589 52.5384C134.977 52.5384 137.195 51.686 138.9 50.2373V52.0271H143.42V33.6608H139.327ZM136.64 46.3594C135.745 47.2971 134.551 47.8084 133.272 47.8084C131.992 47.8084 130.798 47.2971 129.86 46.3594C128.965 45.3794 128.453 44.1436 128.453 42.8226C128.453 41.5015 128.965 40.2231 129.86 39.2858C130.798 38.3484 131.992 37.8368 133.272 37.8368C134.551 37.8368 135.745 38.3484 136.64 39.2858C137.578 40.2231 138.047 41.5015 138.047 42.8226C138.047 44.1436 137.578 45.3794 136.64 46.3594ZM151.821 33.6608H147.685V52.0271H153.015V41.8852C153.569 38.945 156.725 37.07 159.837 38.4334L161.927 33.7034C160.946 33.3626 159.88 33.1921 158.814 33.1921C156.384 33.1921 153.953 33.9592 152.588 35.7489L151.821 33.6608ZM169.475 33.6608H165.125V52.0271H170.498V42.9079C170.498 40.2658 172.374 37.9221 174.933 37.9221C177.491 37.9221 179.368 40.2658 179.368 42.9079V52.0271H184.57V42.9079C184.57 37.496 180.519 33.1494 175.572 33.1494C173.696 33.1494 171.777 34.0018 170.327 35.2802L169.475 33.6608Z" fill="#FFAF2D"/>
<path d="M212.159 52.0271V33.7461L203.588 41.5442L195.017 33.7461V52.0271H189.047V22.1553H191.094L203.588 33.4905L216.039 22.1553H218.129V52.0271H212.159ZM238.725 21.6013C230.196 21.6013 223.246 28.5474 223.246 37.07C223.246 45.5926 230.196 52.5384 238.725 52.5384C247.253 52.5384 254.204 45.5926 254.204 37.07C254.204 28.5474 247.253 21.6013 238.725 21.6013ZM238.725 27.7376C243.884 27.7376 248.063 31.9137 248.063 37.07C248.063 42.2261 243.884 46.4021 238.725 46.4021C233.565 46.4021 229.386 42.2261 229.386 37.07C229.386 31.9137 233.565 27.7376 238.725 27.7376ZM264.274 22.1553L264.146 27.5671H270.457V42.1834H270.329V42.2261C270.329 43.2487 269.945 44.1863 269.22 44.9108C268.495 45.635 267.557 46.0613 266.534 46.0613C265.51 46.0613 264.53 45.635 263.805 44.9108C263.08 44.1863 262.696 43.2487 262.696 42.2261V42.1834H256.726V42.2261C256.726 47.6379 261.118 52.0271 266.534 52.0271C271.907 52.0271 276.299 47.6379 276.299 42.2261V42.1834H276.341V22.1553H264.274ZM295.505 21.6013C286.977 21.6013 280.026 28.5474 280.026 37.07C280.026 45.5926 286.977 52.5384 295.505 52.5384C304.034 52.5384 310.984 45.5926 310.984 37.07C310.984 28.5474 304.034 21.6013 295.505 21.6013ZM295.505 27.7376C300.665 27.7376 304.844 31.9137 304.844 37.07C304.844 42.2261 300.665 46.4021 295.505 46.4021C290.346 46.4021 286.167 42.2261 286.167 37.07C286.167 31.9137 290.346 27.7376 295.505 27.7376Z" fill="#510082"/>
<path fill-rule="evenodd" clip-rule="evenodd" d="M40.8245 37.2569L40.5019 37.1884L0.473504 19.4595C0.39029 19.4013 0.294435 19.3582 0.224125 19.2853C0.0806667 19.1368 0.000488281 18.9385 0.000488281 18.7321C0.000488281 18.5257 0.0806667 18.3274 0.224125 18.179C0.294435 18.1061 0.39029 18.0629 0.473504 18.005L40.5019 0.275799L40.8245 0.207642L41.1471 0.275799L81.1755 18.005L81.4249 18.179C81.4802 18.264 81.5529 18.3397 81.5908 18.4337C81.6485 18.5765 81.6635 18.7329 81.6341 18.884C81.6046 19.0352 81.532 19.1746 81.4249 19.2853C81.3543 19.3582 81.2587 19.4013 81.1755 19.4595L41.1471 37.1884L40.8245 37.2569Z" fill="#510082"/>
<path fill-rule="evenodd" clip-rule="evenodd" d="M40.8245 80L33.8542 73.0344C35.6389 71.251 38.1037 70.1473 40.8245 70.1473C43.5453 70.1473 46.0101 71.251 47.7947 73.0344L40.8245 80Z" fill="#FFAF2D"/>
</g>
<defs>
<clipPath id="clip0_1_104">
<rect width="311" height="80" fill="white"/>
</clipPath>
</defs>
</svg>
