<svg width="200" height="71" viewBox="0 0 200 71" fill="none" xmlns="http://www.w3.org/2000/svg">
    <g clip-path="url(#clip0_5189_2748)">
        <path d="M5.42038 65.3234C4.09413 65.3234 2.80314 64.8382 1.80544 63.9492C0.658082 62.9276 0.000976562 61.4636 0.000976562 59.9328V16.3419C0.000976562 13.591 2.07292 11.2876 4.8209 10.9847L40.0818 7.08723C40.9316 6.99311 41.6971 7.60233 41.7917 8.44771C41.8863 9.29308 41.2739 10.0546 40.4242 10.1487L5.16235 14.0462C3.9849 14.1763 3.09643 15.1637 3.09643 16.3419V59.9328C3.09643 60.5985 3.37079 61.2103 3.86964 61.6544C4.36849 62.0984 5.00926 62.3021 5.67496 62.2294L40.0784 58.4269C40.9282 58.3336 41.6936 58.942 41.7883 59.7873C41.8829 60.6327 41.2705 61.3943 40.4207 61.4884L6.01728 65.2909C5.8186 65.3131 5.61906 65.3234 5.42038 65.3234Z" fill="#0D719A"/>
        <path d="M48.848 60.5473C48.0696 60.5473 47.3996 59.9646 47.311 59.1774C47.2164 58.3321 47.8288 57.5705 48.6786 57.4764L75.3516 54.5287C76.529 54.3987 77.4175 53.4112 77.4175 52.233V8.64124C77.4175 7.97555 77.1431 7.36376 76.6443 6.91968C76.1454 6.4756 75.5047 6.2711 74.8389 6.34469L40.4226 10.148C40.365 10.154 40.3065 10.1574 40.2497 10.1574C39.4714 10.1574 38.8014 9.57475 38.7128 8.78756C38.6182 7.94218 39.2305 7.18066 40.0803 7.08653L74.4966 3.28319C76.0267 3.11462 77.562 3.6032 78.7085 4.62398C79.8558 5.64563 80.5129 7.10964 80.5129 8.64039V52.2313C80.5129 54.9822 78.441 57.2856 75.693 57.5885L49.02 60.5362C48.9624 60.5422 48.9039 60.5456 48.8472 60.5456L48.848 60.5473Z" fill="white"/>
        <path d="M42.3999 33.6886C42.0034 33.6886 41.6078 33.538 41.305 33.2377C40.7004 32.6361 40.7004 31.6607 41.305 31.0592L49.9059 22.5027C50.1966 22.2135 50.5897 22.0518 51.0008 22.0518H58.96L67.1076 13.9463C67.7123 13.3447 68.6928 13.3447 69.2974 13.9463C69.902 14.5478 69.902 15.5232 69.2974 16.1247L60.6965 24.6812C60.4058 24.9704 60.0128 25.1321 59.6016 25.1321H51.6424L43.4948 33.2377C43.1929 33.538 42.7964 33.6886 42.3999 33.6886Z" fill="#F15D22"/>
        <path d="M59.6013 33.6883H51.0374C50.198 33.6883 49.4832 33.0388 49.4531 32.2046C49.4222 31.3284 50.1266 30.6079 51.0004 30.6079H58.9597L67.1073 22.5024C67.7119 21.9009 68.6924 21.9009 69.297 22.5024C69.9017 23.1039 69.9017 24.0794 69.297 24.6809L60.6962 33.2374C60.4055 33.5266 60.0124 33.6883 59.6013 33.6883Z" fill="#FCB017"/>
        <path d="M42.3996 50.8015C41.9997 50.8015 41.5989 50.6483 41.2953 50.3412C40.695 49.7336 40.7268 48.7471 41.3331 48.1447L49.9056 39.6165C50.1963 39.3273 50.5894 39.1656 51.0005 39.1656H58.9597L67.1073 31.06C67.712 30.4585 68.6925 30.4585 69.2971 31.06C69.9017 31.6615 69.9017 32.637 69.2971 33.2385L60.6962 41.795C60.4055 42.0842 60.0125 42.2459 59.6014 42.2459H51.6421L43.4945 50.3514C43.1926 50.6518 42.7961 50.8023 42.3996 50.8023V50.8015Z" fill="#0D719A"/>
        <path d="M40.2516 61.4977C40.2103 61.4977 40.169 61.496 40.1278 61.4926L13.589 59.3988C12.2266 59.291 10.9648 58.6818 10.0377 57.6833C9.1105 56.6847 8.59961 55.385 8.59961 54.0254V10.4105C8.59961 8.91138 9.23435 7.4679 10.3413 6.45054C11.4482 5.43317 12.9448 4.91807 14.4465 5.03615L40.3729 7.08201C41.2252 7.1496 41.8617 7.89145 41.7937 8.73939C41.7258 9.58734 40.9801 10.2197 40.1278 10.1529L14.2013 8.10707C13.5485 8.05573 12.9233 8.2705 12.4416 8.71287C11.96 9.15524 11.6951 9.75761 11.6951 10.4096V54.0237C11.6951 55.2207 12.6343 56.2321 13.8341 56.327L40.3729 58.4208C41.2252 58.4884 41.8617 59.2303 41.7937 60.0782C41.7292 60.8851 41.0515 61.4969 40.2525 61.4969L40.2516 61.4977Z" fill="#FCB017"/>
        <path d="M40.2486 61.498C40.0482 61.498 39.8435 61.4586 39.6474 61.3765L20.5105 53.3394C18.4988 52.4949 17.1992 50.5448 17.1992 48.3732V5.39239C17.1992 3.58099 18.1049 1.90136 19.6229 0.90025C21.1401 -0.100856 23.0478 -0.277974 24.7258 0.426222L40.855 7.19952C41.6428 7.53065 42.0118 8.43336 41.679 9.21713C41.3461 10.0009 40.4387 10.368 39.6509 10.0368L23.5217 3.26355C22.7924 2.95722 21.9951 3.03081 21.3345 3.46633C20.6748 3.90186 20.2955 4.60349 20.2955 5.39154V48.3715C20.2955 49.3024 20.8529 50.1376 21.7147 50.4995L40.8516 58.5366C41.6394 58.8677 42.0084 59.7704 41.6755 60.5542C41.4261 61.142 40.8524 61.4954 40.2486 61.4954V61.498Z" fill="#F15D22"/>
        <path d="M40.2484 70.0532C39.8794 70.0532 39.5087 69.9232 39.2128 69.6579C38.5772 69.0889 38.5256 68.1152 39.0976 67.4829L47.6984 57.9758C48.2704 57.3435 49.2492 57.2921 49.8848 57.8611C50.5204 58.4301 50.572 59.4039 50 60.0362L41.3992 69.5433C41.0938 69.8813 40.6715 70.0532 40.2475 70.0532H40.2484Z" fill="white"/>
        <path d="M42.3992 34.2875C43.5868 34.2875 44.5494 33.3298 44.5494 32.1484C44.5494 30.967 43.5868 30.0093 42.3992 30.0093C41.2117 30.0093 40.249 30.967 40.249 32.1484C40.249 33.3298 41.2117 34.2875 42.3992 34.2875Z" fill="#E24114"/>
        <path d="M68.202 17.1747C69.3895 17.1747 70.3522 16.217 70.3522 15.0356C70.3522 13.8542 69.3895 12.8965 68.202 12.8965C67.0144 12.8965 66.0518 13.8542 66.0518 15.0356C66.0518 16.217 67.0144 17.1747 68.202 17.1747Z" fill="#E24114"/>
        <path d="M68.202 25.7309C69.3895 25.7309 70.3522 24.7732 70.3522 23.5918C70.3522 22.4104 69.3895 21.4526 68.202 21.4526C67.0144 21.4526 66.0518 22.4104 66.0518 23.5918C66.0518 24.7732 67.0144 25.7309 68.202 25.7309Z" fill="#F6920A"/>
        <path d="M51.0008 34.2875C52.1883 34.2875 53.151 33.3298 53.151 32.1484C53.151 30.967 52.1883 30.0093 51.0008 30.0093C49.8133 30.0093 48.8506 30.967 48.8506 32.1484C48.8506 33.3298 49.8133 34.2875 51.0008 34.2875Z" fill="#F6920A"/>
        <path d="M42.3992 51.4003C43.5868 51.4003 44.5494 50.4426 44.5494 49.2612C44.5494 48.0798 43.5868 47.1221 42.3992 47.1221C41.2117 47.1221 40.249 48.0798 40.249 49.2612C40.249 50.4426 41.2117 51.4003 42.3992 51.4003Z" fill="#145876"/>
        <path d="M68.202 34.2875C69.3895 34.2875 70.3522 33.3298 70.3522 32.1484C70.3522 30.967 69.3895 30.0093 68.202 30.0093C67.0144 30.0093 66.0518 30.967 66.0518 32.1484C66.0518 33.3298 67.0144 34.2875 68.202 34.2875Z" fill="#145876"/>
        <path d="M96.1553 42.9696V20.5825C96.1553 19.4342 96.772 18.7891 97.8686 18.7891H98.4164C99.5131 18.7891 100.13 19.4351 100.13 20.5825V29.8029H111.915V20.5825C111.915 19.4342 112.531 18.7891 113.628 18.7891H114.176C115.272 18.7891 115.889 19.4351 115.889 20.5825V42.9696C115.889 44.1179 115.272 44.7631 114.176 44.7631H113.628C112.531 44.7631 111.915 44.1171 111.915 42.9696V33.3907H100.13V42.9696C100.13 44.1179 99.5131 44.7631 98.4164 44.7631H97.8686C96.772 44.7631 96.1553 44.1171 96.1553 42.9696Z" fill="white"/>
        <path d="M121.812 34.503C121.812 28.1884 125.855 23.8477 131.713 23.8477C137.571 23.8477 141.031 27.8298 141.271 33.7492C141.305 34.9334 140.654 35.5435 139.558 35.5435H125.649C125.786 39.5257 128.15 41.7854 131.953 41.7854C134.077 41.7854 135.413 41.2113 136.646 40.0639C137.4 39.3819 137.88 38.8086 138.839 39.0593L139.25 39.1672C140.449 39.4897 140.689 40.1717 140.038 41.1762C138.324 43.8313 135.55 45.1584 131.884 45.1584C125.786 45.1584 121.812 40.9255 121.812 34.503ZM137.64 32.3862C137.365 29.121 135.242 27.0401 131.782 27.0401C128.322 27.0401 126.198 28.8344 125.753 32.3862H137.64Z" fill="white"/>
        <path d="M150.478 49.2844L152.465 44.6203L144.86 26.3231C144.346 25.103 144.895 24.2422 146.128 24.2422H146.779C147.738 24.2422 148.389 24.7085 148.766 25.6412L154.521 40.2787L160.277 25.6412C160.653 24.7085 161.304 24.2422 162.263 24.2422H162.846C164.148 24.2422 164.696 25.103 164.181 26.3231L154.383 50.0374C154.006 51.0059 153.321 51.4004 152.362 51.4004H151.711C150.478 51.4004 149.964 50.5396 150.478 49.2835L150.478 49.2844Z" fill="white"/>
        <path d="M169.465 42.9696V20.5825C169.465 19.4342 170.082 18.7891 171.178 18.7891H171.726C172.823 18.7891 173.439 19.4351 173.439 20.5825V29.8029H185.224V20.5825C185.224 19.4342 185.841 18.7891 186.937 18.7891H187.485C188.582 18.7891 189.199 19.4351 189.199 20.5825V42.9696C189.199 44.1179 188.582 44.7631 187.485 44.7631H186.937C185.841 44.7631 185.224 44.1171 185.224 42.9696V33.3907H173.439V42.9696C173.439 44.1179 172.823 44.7631 171.726 44.7631H171.178C170.082 44.7631 169.465 44.1171 169.465 42.9696Z" fill="white"/>
        <path d="M195.478 19.3271C195.478 17.9641 196.437 17.1743 197.739 17.1743C198.938 17.1743 200 17.9632 200 19.3271C200 20.691 198.938 21.4799 197.739 21.4799C196.437 21.4799 195.478 20.691 195.478 19.3271ZM195.801 42.9695V26.0354C195.801 24.8871 196.406 24.242 197.482 24.242H197.919C198.995 24.242 199.601 24.888 199.601 26.0354V42.9695C199.601 44.1178 198.995 44.7629 197.919 44.7629H197.482C196.406 44.7629 195.801 44.1169 195.801 42.9695Z" fill="white"/>
    </g>
    <defs>
        <clipPath id="clip0_5189_2748">
            <rect width="200" height="70.0535" fill="white"/>
        </clipPath>
    </defs>
</svg>
