<svg width="47" height="40" viewBox="0 0 47 40" fill="none" xmlns="http://www.w3.org/2000/svg">
    <g clip-path="url(#clip0_5021_605)">
        <path d="M3.16408 37.299C2.38988 37.299 1.63601 37.0217 1.0536 36.5146C0.384088 35.9315 0 35.0955 0 34.221V9.33134C0 7.76085 1.20975 6.44564 2.81388 6.2722L23.3975 4.04703C23.8935 3.99353 24.3404 4.34114 24.3953 4.82385C24.4506 5.30655 24.0931 5.74137 23.597 5.79487L3.01345 8.02028C2.32586 8.09454 1.80747 8.65834 1.80747 9.33134V34.221C1.80747 34.6014 1.96788 34.9504 2.25909 35.204C2.55029 35.4576 2.92459 35.5741 3.31294 35.5321L23.3959 33.3609C23.8923 33.3074 24.3388 33.655 24.3941 34.1377C24.4493 34.6204 24.0918 35.0552 23.5958 35.109L3.51277 37.2802C3.39654 37.2926 3.28031 37.299 3.16433 37.299H3.16408Z" fill="#0D719A"/>
        <path d="M28.5151 34.5718C28.0607 34.5718 27.6694 34.2391 27.6179 33.7894C27.5627 33.3067 27.9201 32.8718 28.4162 32.8183L43.9863 31.135C44.6739 31.0607 45.1923 30.4969 45.1923 29.8239V4.93425C45.1923 4.55391 45.0319 4.20483 44.7407 3.95126C44.4495 3.6977 44.0754 3.58117 43.6868 3.62319L23.5965 5.7951C23.5626 5.79877 23.529 5.80048 23.4956 5.80048C23.0412 5.80048 22.6499 5.46777 22.5984 5.01804C22.5432 4.53534 22.9007 4.10052 23.3967 4.04702L43.487 1.87511C44.3799 1.77861 45.2761 2.05759 45.9459 2.64069C46.6154 3.22379 46.9995 4.05972 46.9995 4.93425V29.8239C46.9995 31.3944 45.7898 32.7096 44.1856 32.8831L28.6155 34.5664C28.5816 34.5701 28.548 34.5718 28.5146 34.5718H28.5151Z" fill="#333333"/>
        <path d="M24.7505 19.236C24.5193 19.236 24.2879 19.1503 24.1114 18.9785C23.7584 18.6351 23.7584 18.0784 24.1114 17.7349L29.1321 12.8493C29.3016 12.6844 29.5315 12.5918 29.7713 12.5918H34.4177L39.1739 7.9636C39.5269 7.62014 40.099 7.62014 40.4519 7.9636C40.8049 8.30707 40.8049 8.86379 40.4519 9.20725L35.4312 14.0929C35.2617 14.2578 35.0318 14.3504 34.792 14.3504H30.1456L25.3894 18.9785C25.213 19.1503 24.9817 19.236 24.7503 19.236H24.7505Z" fill="#F15D22"/>
        <path d="M34.7926 19.236H29.7896C29.2828 19.236 28.8585 18.8324 28.8683 18.3395C28.8781 17.8465 29.2788 17.4772 29.7718 17.4772H34.4183L39.1616 12.8615C39.5199 12.5129 40.1133 12.506 40.4648 12.8615C40.8162 13.2169 40.8012 13.7536 40.4525 14.0929L35.4317 18.9785C35.2623 19.1434 35.0323 19.236 34.7926 19.236Z" fill="#FCB017"/>
        <path d="M24.7505 29.0073C24.5193 29.0073 24.2879 28.9216 24.1114 28.7498C23.7584 28.4064 23.7584 27.8496 24.1114 27.5062L29.1321 22.6205C29.3016 22.4556 29.5315 22.3631 29.7713 22.3631H34.4177L39.1611 17.7474C39.5193 17.3988 40.1128 17.3919 40.4642 17.7474C40.8157 18.1028 40.8006 18.6395 40.4519 18.9788L35.4312 23.8644C35.2617 24.0293 35.0318 24.1219 34.792 24.1219H30.1456L25.3894 28.7501C25.213 28.9218 24.9817 29.0075 24.7503 29.0075L24.7505 29.0073Z" fill="#0D719A"/>
        <path d="M23.4962 35.1144C23.4721 35.1144 23.448 35.1134 23.4236 35.1114L7.93159 33.9157C7.13606 33.8543 6.39976 33.5062 5.85828 32.9358C5.31679 32.3654 5.01855 31.6238 5.01855 30.8472V5.94436C5.01855 5.0884 5.38909 4.26443 6.03526 3.68353C6.68143 3.10263 7.55479 2.80851 8.43166 2.87618L23.5662 4.04458C24.0638 4.08293 24.4351 4.50652 24.3956 4.99068C24.3562 5.47485 23.9209 5.8359 23.4234 5.79779L8.28882 4.62939C7.9075 4.60008 7.54274 4.72295 7.26183 4.97554C6.98092 5.22813 6.82603 5.57232 6.82603 5.94461V30.8477C6.82603 31.531 7.37429 32.1087 8.07444 32.1627L23.5665 33.3585C24.064 33.3968 24.4353 33.8204 24.3959 34.3046C24.3582 34.765 23.9626 35.1146 23.4959 35.1146L23.4962 35.1144Z" fill="#FCB017"/>
        <path d="M23.4951 35.1146C23.3779 35.1146 23.2589 35.0924 23.1439 35.0452L11.9728 30.4559C10.7987 29.9734 10.04 28.8605 10.04 27.6203V3.07893C10.04 2.04464 10.569 1.08583 11.4546 0.513966C12.3405 -0.0576543 13.4539 -0.159031 14.4332 0.243301L23.8486 4.11078C24.3085 4.29961 24.5239 4.81553 24.3298 5.26306C24.1358 5.71058 23.6056 5.92018 23.1457 5.73135L13.7303 1.86387C13.3043 1.68896 12.8391 1.73122 12.4538 1.9799C12.0684 2.22858 11.8475 2.62921 11.8475 3.07917V27.6205C11.8475 28.1521 12.1726 28.6291 12.6759 28.8358L23.8471 33.4251C24.307 33.614 24.5224 34.1299 24.3281 34.5774C24.1825 34.9133 23.8476 35.1151 23.4951 35.1151V35.1146Z" fill="#F15D22"/>
        <path d="M23.4952 40C23.2799 40 23.0637 39.9255 22.891 39.7743C22.52 39.4494 22.4898 38.8934 22.824 38.5324L27.8447 33.1042C28.1786 32.7431 28.75 32.7138 29.121 33.0389C29.492 33.3638 29.5222 33.9198 29.188 34.2809L24.1673 39.7091C23.9888 39.902 23.7425 40.0002 23.4952 40.0002V40Z" fill="#333333"/>
        <path d="M24.7513 19.578C25.4445 19.578 26.0065 19.0312 26.0065 18.3566C26.0065 17.682 25.4445 17.1352 24.7513 17.1352C24.0581 17.1352 23.4961 17.682 23.4961 18.3566C23.4961 19.0312 24.0581 19.578 24.7513 19.578Z" fill="#E24114"/>
        <path d="M39.8128 9.80671C40.506 9.80671 41.068 9.25987 41.068 8.5853C41.068 7.91074 40.506 7.36389 39.8128 7.36389C39.1196 7.36389 38.5576 7.91074 38.5576 8.5853C38.5576 9.25987 39.1196 9.80671 39.8128 9.80671Z" fill="#E24114"/>
        <path d="M39.8128 14.6924C40.506 14.6924 41.068 14.1455 41.068 13.471C41.068 12.7964 40.506 12.2495 39.8128 12.2495C39.1196 12.2495 38.5576 12.7964 38.5576 13.471C38.5576 14.1455 39.1196 14.6924 39.8128 14.6924Z" fill="#F6920A"/>
        <path d="M29.7718 19.578C30.465 19.578 31.027 19.0312 31.027 18.3566C31.027 17.682 30.465 17.1352 29.7718 17.1352C29.0786 17.1352 28.5166 17.682 28.5166 18.3566C28.5166 19.0312 29.0786 19.578 29.7718 19.578Z" fill="#F6920A"/>
        <path d="M24.7513 29.3493C25.4445 29.3493 26.0065 28.8024 26.0065 28.1279C26.0065 27.4533 25.4445 26.9065 24.7513 26.9065C24.0581 26.9065 23.4961 27.4533 23.4961 28.1279C23.4961 28.8024 24.0581 29.3493 24.7513 29.3493Z" fill="#145876"/>
        <path d="M39.8128 19.578C40.506 19.578 41.068 19.0312 41.068 18.3566C41.068 17.682 40.506 17.1352 39.8128 17.1352C39.1196 17.1352 38.5576 17.682 38.5576 18.3566C38.5576 19.0312 39.1196 19.578 39.8128 19.578Z" fill="#145876"/>
    </g>
    <defs>
        <clipPath id="clip0_5021_605">
            <rect width="47" height="40" fill="white"/>
        </clipPath>
    </defs>
</svg>
