<svg width="42" height="42" viewBox="0 0 42 42" fill="none" xmlns="http://www.w3.org/2000/svg">
    <path d="M17 0.5C7.8873 0.5 0.5 7.8873 0.5 17V25C0.5 34.1127 7.8873 41.5 17 41.5H25C34.1127 41.5 41.5 34.1127 41.5 25V17C41.5 7.8873 34.1127 0.5 25 0.5H17Z" fill="#0D719A"/>
    <path d="M17 0.5C7.8873 0.5 0.5 7.8873 0.5 17V25C0.5 34.1127 7.8873 41.5 17 41.5H25C34.1127 41.5 41.5 34.1127 41.5 25V17C41.5 7.8873 34.1127 0.5 25 0.5H17Z" stroke="#0D719A"/>
    <path d="M17.2949 25.59L21.8749 21L17.2949 16.41L18.7049 15L24.7049 21L18.7049 27L17.2949 25.59Z" fill="white"/>
</svg>
