<svg width="24" height="25" viewBox="0 0 24 25" fill="none" xmlns="http://www.w3.org/2000/svg">
    <path d="M5.20898 13.0351H16.379L11.499 17.9151C11.109 18.3051 11.109 18.9451 11.499 19.3351C11.889 19.7251 12.519 19.7251 12.909 19.3351L19.499 12.7451C19.889 12.3551 19.889 11.7251 19.499 11.3351L12.919 4.73511C12.7322 4.54786 12.4785 4.44263 12.214 4.44263C11.9495 4.44263 11.6958 4.54786 11.509 4.73511C11.119 5.12511 11.119 5.75511 11.509 6.14511L16.379 11.0351H5.20898C4.65898 11.0351 4.20898 11.4851 4.20898 12.0351C4.20898 12.5851 4.65898 13.0351 5.20898 13.0351Z" fill="#0D719A"/>
</svg>
