<svg width="28" height="28" viewBox="0 0 28 28" fill="none" xmlns="http://www.w3.org/2000/svg">
    <path fill-rule="evenodd" clip-rule="evenodd" d="M5.66663 14C5.66663 9.39999 9.39996 5.66666 14 5.66666C18.6 5.66666 22.3333 9.39999 22.3333 14C22.3333 18.6 18.6 22.3333 14 22.3333C9.39996 22.3333 5.66663 18.6 5.66663 14ZM8.74996 14.5833L11.7416 17.575C12.0666 17.9 12.6 17.9 12.9166 17.575L19.2416 11.25C19.5666 10.925 19.5666 10.4 19.2416 10.075C18.9166 9.74999 18.3916 9.74999 18.0666 10.075L12.3333 15.8083L9.92496 13.4083C9.59996 13.0833 9.07496 13.0833 8.74996 13.4083C8.59392 13.564 8.50622 13.7754 8.50622 13.9958C8.50622 14.2163 8.59392 14.4276 8.74996 14.5833Z" fill="#36E792"/>
</svg>
