<?xml version="1.0" encoding="UTF-8"?><svg id="Layer_2" xmlns="http://www.w3.org/2000/svg" viewBox="0 0 214.13 72.84"><g id="Layer_1-2"><polygon points="165.3 0 154.79 54.69 162.24 54.69 167.98 24.53 183.25 57.07 183.25 41.48 165.3 0" fill="#fff" stroke-width="0"/><polygon points="167.76 0 171.12 7.75 198.02 7.75 201.38 0 167.76 0" fill="#e04c32" stroke-width="0"/><polygon points="183.25 57.06 203.85 12.99 201.35 0 183.25 41.68 183.25 57.06" fill="#e04c32" stroke-width="0"/><polygon points="203.85 12.99 198.61 24.19 204.41 54.7 211.86 54.7 203.85 12.99" fill="#fff" stroke-width="0"/><path d="M4.28,22.35C1.44,25.46,0,30.38,0,36.97c0,3.41.48,6.37,1.43,8.81.94,2.41,2.37,4.39,4.25,5.89,1.44,1.15,2.99,1.99,4.63,2.49,1.65.5,4.07.76,7.2.76h16.8v-21.67h-17.84l2.78,5.74h7.83v10.03h-9.57c-3.33,0-5.8-1.01-7.33-3.01-1.5-1.96-2.27-5.12-2.27-9.4,0-4.56.76-7.96,2.27-10.08,1.54-2.18,4.01-3.29,7.33-3.29h16.8l-2.8-5.56h-14c-5.96,0-10.42,1.57-13.25,4.67Z" fill="#fff" stroke-width="0"/><path d="M51.54,27.85h-11.96v27.06h6.39v-22.7h3.12c1.56,0,2.52.22,3.02.7.5.48.74,1.32.74,2.57v3.11h6.05v-4.17c0-2.46-.53-4.18-1.59-5.12-1.07-.96-3.02-1.44-5.79-1.44Z" fill="#fff" stroke-width="0"/><path d="M87.18,31.18c-2.59-2.54-6.1-3.82-10.46-3.82s-7.93,1.29-10.52,3.82c-2.59,2.54-3.91,5.97-3.91,10.22s1.31,7.65,3.91,10.17c2.59,2.53,6.14,3.81,10.52,3.81s7.91-1.28,10.48-3.8c2.57-2.51,3.87-5.94,3.87-10.19s-1.31-7.68-3.89-10.22ZM82.29,47.97c-1.36,1.61-3.25,2.42-5.62,2.42s-4.28-.81-5.63-2.42c-1.32-1.58-1.99-3.79-1.99-6.58s.68-4.97,2.01-6.55c1.35-1.61,3.24-2.42,5.61-2.42s4.28.81,5.64,2.41c1.33,1.57,2.01,3.78,2.01,6.57s-.68,5-2.02,6.58Z" fill="#fff" stroke-width="0"/><path d="M102.27,48.66c-.76-.73-1.13-2.08-1.13-4.12v-16.69h-6.37v17.29c0,3.42.87,5.93,2.57,7.45,1.72,1.54,4.61,2.32,8.57,2.32h13.46v-27.06h-6.39v21.89h-6.47c-2.1,0-3.49-.35-4.25-1.08Z" fill="#fff" stroke-width="0"/><path d="M144.17,53.94c1.61-.63,3.01-1.69,4.16-3.16.98-1.23,1.72-2.61,2.21-4.1.48-1.5.73-3.17.73-4.96,0-4.37-1.17-7.82-3.48-10.24-2.3-2.42-5.56-3.64-9.7-3.64h-13.78v34.09l6.39,10.9v-17.93h6.89c2.73,0,4.95-.33,6.58-.97ZM130.7,49.92v-17.03h5.61c2.96,0,5.09.64,6.33,1.91,1.24,1.26,1.86,3.41,1.86,6.38s-.68,5.33-2.02,6.69c-1.34,1.36-3.61,2.05-6.74,2.05h-5.04Z" fill="#fff" stroke-width="0"/><path d="M140.23,61.93h4.49c1.58,0,2.75.41,3.5,1.24.75.83,1.13,2.11,1.13,3.84,0,.89-.13,1.66-.38,2.31s-.63,1.16-1.13,1.56c-.39.31-.8.53-1.24.66-.44.13-1.05.2-1.82.2h-4.55v-9.81ZM144.68,63.64h-2.39v6.39h2.39c.91,0,1.54-.23,1.89-.69.35-.46.52-1.29.52-2.51s-.17-2.05-.52-2.51c-.35-.46-.98-.69-1.89-.69Z" fill="#fff" stroke-width="0"/><path d="M157.52,63.64c-.75,0-1.31.19-1.69.56-.38.37-.59.95-.63,1.71h5.71v1.71h-5.72c0,.85.18,1.47.54,1.84.36.37.95.56,1.79.56h3.39v1.71h-3.49c-.77,0-1.37-.07-1.81-.2-.44-.13-.85-.35-1.24-.66-.5-.4-.88-.92-1.13-1.56s-.38-1.41-.38-2.31c0-1.74.38-3.02,1.13-3.84s1.92-1.24,3.5-1.24h3.43v1.71h-3.39Z" fill="#fff" stroke-width="0"/><path d="M173.46,63.68h-5.1c-.55,0-.95.1-1.2.31s-.38.53-.38.97c0,.36.11.62.33.8.22.18.54.27.97.27h2.73c1.13,0,1.93.21,2.41.64s.72,1.14.72,2.14-.28,1.75-.83,2.23c-.55.47-1.42.71-2.6.71h-5.49v-1.75h5.17c.59,0,1-.09,1.24-.26.24-.17.36-.46.36-.85s-.11-.7-.33-.87c-.22-.17-.6-.26-1.13-.26h-2.44c-1.13,0-1.96-.23-2.48-.68-.52-.45-.78-1.16-.78-2.14,0-1.04.27-1.8.82-2.28s1.42-.72,2.62-.72h5.4v1.75Z" fill="#fff" stroke-width="0"/><path d="M180.11,71.74h-2.16v-9.81h2.16v9.81Z" fill="#fff" stroke-width="0"/><path d="M188.29,67.66v-1.74h4.88v5.82h-4.44c-.82,0-1.45-.07-1.89-.2-.44-.13-.85-.35-1.23-.66-.5-.4-.88-.92-1.13-1.56-.25-.64-.38-1.41-.38-2.31,0-1.73.38-3.01,1.13-3.84.75-.83,1.92-1.24,3.49-1.24h4.44v1.69h-4.44c-.81,0-1.4.26-1.77.79s-.56,1.36-.56,2.51c0,1.07.18,1.85.55,2.33.37.48.96.72,1.78.72h2.32v-2.31h-2.76Z" fill="#fff" stroke-width="0"/><path d="M197.48,61.93h2.61l4.02,7.05-.1-7.05h2.11v9.81h-2.4l-4.22-7.42.09,7.42h-2.12v-9.81Z" fill="#fff" stroke-width="0"/><path d="M210.29,62.14v.5h-.96v2.5h-.6v-2.5h-.96v-.5h2.51ZM213.54,65.14l-.11-1.76c-.01-.23-.01-.52-.02-.84h-.03c-.08.26-.17.62-.25.89l-.54,1.67h-.62l-.54-1.71c-.05-.23-.14-.58-.21-.85h-.03c0,.28-.01.56-.02.84l-.11,1.76h-.57l.22-3h.89l.52,1.47c.07.23.12.45.2.76h.01c.08-.28.14-.53.21-.75l.52-1.48h.86l.23,3h-.6Z" fill="#fff" stroke-width="0"/></g></svg>