<?xml version="1.0" encoding="UTF-8"?><svg id="Layer_2" xmlns="http://www.w3.org/2000/svg" viewBox="0 0 151.26 55.17"><g id="Layer_1-2"><path d="M4.28,4.67C1.44,7.79,0,12.71,0,19.3c0,3.41.48,6.37,1.43,8.81.94,2.41,2.37,4.39,4.25,5.89,1.44,1.15,2.99,1.99,4.63,2.49,1.65.5,4.07.76,7.2.76h16.8V15.57h-17.84l2.78,5.74h7.83v10.03h-9.57c-3.33,0-5.8-1.01-7.33-3.01-1.5-1.96-2.27-5.12-2.27-9.4,0-4.56.76-7.96,2.27-10.08,1.54-2.18,4.01-3.29,7.33-3.29h16.8l-2.8-5.56h-14C11.56,0,7.1,1.57,4.28,4.67Z" fill="#fff" stroke-width="0"/><path d="M51.54,10.18h-11.96v27.06h6.39V14.54h3.12c1.56,0,2.52.22,3.02.7.5.48.74,1.32.74,2.57v3.11h6.05v-4.17c0-2.46-.53-4.18-1.59-5.12-1.07-.96-3.02-1.44-5.79-1.44Z" fill="#fff" stroke-width="0"/><path d="M87.18,13.51c-2.59-2.54-6.1-3.82-10.46-3.82s-7.93,1.29-10.52,3.82c-2.59,2.54-3.91,5.97-3.91,10.22s1.31,7.65,3.91,10.17c2.59,2.53,6.14,3.81,10.52,3.81s7.91-1.28,10.48-3.8c2.57-2.51,3.87-5.94,3.87-10.19s-1.31-7.68-3.89-10.22ZM82.29,30.3c-1.36,1.61-3.25,2.42-5.62,2.42s-4.28-.81-5.63-2.42c-1.32-1.58-1.99-3.79-1.99-6.58s.68-4.97,2.01-6.55c1.35-1.61,3.24-2.42,5.61-2.42s4.28.81,5.64,2.41c1.33,1.57,2.01,3.78,2.01,6.57s-.68,5-2.02,6.58Z" fill="#fff" stroke-width="0"/><path d="M102.27,30.99c-.76-.73-1.13-2.08-1.13-4.12V10.18h-6.37v17.29c0,3.42.87,5.93,2.57,7.45,1.72,1.54,4.61,2.32,8.57,2.32h13.46V10.18h-6.39v21.89h-6.47c-2.1,0-3.49-.35-4.25-1.08Z" fill="#fff" stroke-width="0"/><path d="M144.17,36.27c1.61-.63,3.01-1.69,4.16-3.16.98-1.23,1.72-2.61,2.21-4.1.48-1.5.73-3.17.73-4.96,0-4.37-1.17-7.82-3.48-10.24-2.3-2.42-5.56-3.64-9.7-3.64h-13.78v34.09l6.39,10.9v-17.93h6.89c2.73,0,4.95-.33,6.58-.97ZM130.7,32.25V15.22h5.61c2.96,0,5.09.64,6.33,1.91,1.24,1.26,1.86,3.41,1.86,6.38s-.68,5.33-2.02,6.69c-1.34,1.36-3.61,2.05-6.74,2.05h-5.04Z" fill="#fff" stroke-width="0"/></g></svg>